<svg viewBox="0 0 16 16" xmlns="http://www.w3.org/2000/svg">
    <style>
        path {
            fill: #000000;
        }

        @media (prefers-color-scheme: dark) {
            path {
                fill: #ffffff;
            }
        }
    </style>
    <path d="M8 0C3.59 0 0 3.59 0 8s3.59 8 8 8 8-3.59 8-8-3.59-8-8-8zm7.09 8c0 1.77-.67 3.39-1.75 4.63L8.71 8l4.63-4.63A6.99 6.99 0 0115.09 8zm-2.46-5.33L8 7.29 3.37 2.67a7.087 7.087 0 019.26 0zM.91 8c0-1.77.67-3.39 1.75-4.63L7.29 8l-4.63 4.63A6.99 6.99 0 01.91 8zm2.46 5.33L8 8.71l4.63 4.63A7.132 7.132 0 018 15.05c-1.77 0-3.38-.65-4.63-1.72z"/>
</svg>
